<mxfile host="app.diagrams.net" modified="2025-10-24T00:00:00.000Z" agent="5.0" version="21.0.0" etag="onoxfri-v1.1" type="device">
  <diagram name="Sistema Onoxfri" id="onoxfri-flow">
    <mxGraphModel dx="1422" dy="794" grid="1" gridSize="10" guides="1" tooltips="1" connect="1" arrows="1" fold="1" page="1" pageScale="1" pageWidth="1169" pageHeight="827" math="0" shadow="0">
      <root>
        <mxCell id="0" />
        <mxCell id="1" parent="0" />
        
        <!-- Título -->
        <mxCell id="title" value="SISTEMA DE INVENTARIO ONOXFRI" style="text;html=1;strokeColor=none;fillColor=none;align=center;verticalAlign=middle;whiteSpace=wrap;rounded=0;fontSize=24;fontStyle=1;fontColor=#4B0082;" vertex="1" parent="1">
          <mxGeometry x="340" y="20" width="480" height="40" as="geometry" />
        </mxCell>
        
        <!-- Usuario -->
        <mxCell id="user" value="Usuario" style="shape=umlActor;verticalLabelPosition=bottom;verticalAlign=top;html=1;outlineConnect=0;fillColor=#8A2BE2;strokeColor=#4B0082;fontColor=#FFFFFF;" vertex="1" parent="1">
          <mxGeometry x="80" y="120" width="60" height="120" as="geometry" />
        </mxCell>
        
        <!-- Landing Page -->
        <mxCell id="landing" value="Landing Page" style="rounded=1;whiteSpace=wrap;html=1;fillColor=#E1D5E7;strokeColor=#9673A6;fontColor=#000000;fontSize=14;fontStyle=1;" vertex="1" parent="1">
          <mxGeometry x="240" y="150" width="140" height="60" as="geometry" />
        </mxCell>
        
        <mxCell id="edge1" style="edgeStyle=orthogonalEdgeStyle;rounded=0;orthogonalLoop=1;jettySize=auto;html=1;strokeColor=#8A2BE2;strokeWidth=2;" edge="1" parent="1" source="user" target="landing">
          <mxGeometry relative="1" as="geometry" />
        </mxCell>
        
        <!-- Autenticación -->
        <mxCell id="auth" value="Autenticación&#xa;(Login/Registro)" style="rounded=1;whiteSpace=wrap;html=1;fillColor=#D5E8D4;strokeColor=#82B366;fontColor=#000000;fontSize=12;fontStyle=1;" vertex="1" parent="1">
          <mxGeometry x="240" y="280" width="140" height="70" as="geometry" />
        </mxCell>
        
        <mxCell id="edge2" style="edgeStyle=orthogonalEdgeStyle;rounded=0;orthogonalLoop=1;jettySize=auto;html=1;strokeColor=#8A2BE2;strokeWidth=2;" edge="1" parent="1" source="landing" target="auth">
          <mxGeometry relative="1" as="geometry" />
        </mxCell>
        
        <!-- Validación -->
        <mxCell id="validation" value="Validación&#xa;Credenciales" style="rhombus;whiteSpace=wrap;html=1;fillColor=#FFF2CC;strokeColor=#D6B656;fontColor=#000000;fontSize=11;" vertex="1" parent="1">
          <mxGeometry x="250" y="410" width="120" height="100" as="geometry" />
        </mxCell>
        
        <mxCell id="edge3" style="edgeStyle=orthogonalEdgeStyle;rounded=0;orthogonalLoop=1;jettySize=auto;html=1;strokeColor=#8A2BE2;strokeWidth=2;" edge="1" parent="1" source="auth" target="validation">
          <mxGeometry relative="1" as="geometry" />
        </mxCell>
        
        <!-- Error -->
        <mxCell id="error" value="Error&#xa;Credenciales&#xa;Inválidas" style="rounded=1;whiteSpace=wrap;html=1;fillColor=#F8CECC;strokeColor=#B85450;fontColor=#000000;fontSize=11;" vertex="1" parent="1">
          <mxGeometry x="80" y="430" width="100" height="60" as="geometry" />
        </mxCell>
        
        <mxCell id="edge4" value="No" style="edgeStyle=orthogonalEdgeStyle;rounded=0;orthogonalLoop=1;jettySize=auto;html=1;strokeColor=#FF0000;strokeWidth=2;fontColor=#FF0000;fontSize=12;fontStyle=1;" edge="1" parent="1" source="validation" target="error">
          <mxGeometry relative="1" as="geometry" />
        </mxCell>
        
        <mxCell id="edge5" style="edgeStyle=orthogonalEdgeStyle;rounded=0;orthogonalLoop=1;jettySize=auto;html=1;strokeColor=#8A2BE2;strokeWidth=2;dashed=1;" edge="1" parent="1" source="error" target="auth">
          <mxGeometry relative="1" as="geometry" />
        </mxCell>
        
        <!-- Dashboard -->
        <mxCell id="dashboard" value="Dashboard" style="rounded=1;whiteSpace=wrap;html=1;fillColor=#DAE8FC;strokeColor=#6C8EBF;fontColor=#000000;fontSize=14;fontStyle=1;" vertex="1" parent="1">
          <mxGeometry x="480" y="430" width="140" height="60" as="geometry" />
        </mxCell>
        
        <mxCell id="edge6" value="Sí" style="edgeStyle=orthogonalEdgeStyle;rounded=0;orthogonalLoop=1;jettySize=auto;html=1;strokeColor=#00FF00;strokeWidth=2;fontColor=#00FF00;fontSize=12;fontStyle=1;" edge="1" parent="1" source="validation" target="dashboard">
          <mxGeometry relative="1" as="geometry" />
        </mxCell>
        
        <!-- Módulos del Sistema -->
        <mxCell id="modules-title" value="MÓDULOS DEL SISTEMA" style="text;html=1;strokeColor=none;fillColor=none;align=center;verticalAlign=middle;whiteSpace=wrap;rounded=0;fontSize=16;fontStyle=1;fontColor=#4B0082;" vertex="1" parent="1">
          <mxGeometry x="680" y="120" width="240" height="30" as="geometry" />
        </mxCell>
        
        <!-- Productos -->
        <mxCell id="productos" value="Productos" style="rounded=1;whiteSpace=wrap;html=1;fillColor=#E1D5E7;strokeColor=#9673A6;fontColor=#000000;fontSize=12;" vertex="1" parent="1">
          <mxGeometry x="680" y="180" width="100" height="50" as="geometry" />
        </mxCell>
        
        <mxCell id="edge7" style="edgeStyle=orthogonalEdgeStyle;rounded=0;orthogonalLoop=1;jettySize=auto;html=1;strokeColor=#8A2BE2;strokeWidth=1.5;" edge="1" parent="1" source="dashboard" target="productos">
          <mxGeometry relative="1" as="geometry" />
        </mxCell>
        
        <!-- Categorías -->
        <mxCell id="categorias" value="Categorías" style="rounded=1;whiteSpace=wrap;html=1;fillColor=#E1D5E7;strokeColor=#9673A6;fontColor=#000000;fontSize=12;" vertex="1" parent="1">
          <mxGeometry x="820" y="180" width="100" height="50" as="geometry" />
        </mxCell>
        
        <mxCell id="edge8" style="edgeStyle=orthogonalEdgeStyle;rounded=0;orthogonalLoop=1;jettySize=auto;html=1;strokeColor=#8A2BE2;strokeWidth=1.5;" edge="1" parent="1" source="dashboard" target="categorias">
          <mxGeometry relative="1" as="geometry" />
        </mxCell>
        
        <!-- Empresas -->
        <mxCell id="empresas" value="Empresas" style="rounded=1;whiteSpace=wrap;html=1;fillColor=#E1D5E7;strokeColor=#9673A6;fontColor=#000000;fontSize=12;" vertex="1" parent="1">
          <mxGeometry x="680" y="260" width="100" height="50" as="geometry" />
        </mxCell>
        
        <mxCell id="edge9" style="edgeStyle=orthogonalEdgeStyle;rounded=0;orthogonalLoop=1;jettySize=auto;html=1;strokeColor=#8A2BE2;strokeWidth=1.5;" edge="1" parent="1" source="dashboard" target="empresas">
          <mxGeometry relative="1" as="geometry" />
        </mxCell>
        
        <!-- Inventario -->
        <mxCell id="inventario" value="Inventario" style="rounded=1;whiteSpace=wrap;html=1;fillColor=#D5E8D4;strokeColor=#82B366;fontColor=#000000;fontSize=12;fontStyle=1;" vertex="1" parent="1">
          <mxGeometry x="820" y="260" width="100" height="50" as="geometry" />
        </mxCell>
        
        <mxCell id="edge10" style="edgeStyle=orthogonalEdgeStyle;rounded=0;orthogonalLoop=1;jettySize=auto;html=1;strokeColor=#00AA00;strokeWidth=2;" edge="1" parent="1" source="dashboard" target="inventario">
          <mxGeometry relative="1" as="geometry" />
        </mxCell>
        
        <!-- Reportes -->
        <mxCell id="reportes" value="Reportes" style="rounded=1;whiteSpace=wrap;html=1;fillColor=#E1D5E7;strokeColor=#9673A6;fontColor=#000000;fontSize=12;" vertex="1" parent="1">
          <mxGeometry x="680" y="340" width="100" height="50" as="geometry" />
        </mxCell>
        
        <mxCell id="edge11" style="edgeStyle=orthogonalEdgeStyle;rounded=0;orthogonalLoop=1;jettySize=auto;html=1;strokeColor=#8A2BE2;strokeWidth=1.5;" edge="1" parent="1" source="dashboard" target="reportes">
          <mxGeometry relative="1" as="geometry" />
        </mxCell>
        
        <!-- Usuarios -->
        <mxCell id="usuarios" value="Usuarios" style="rounded=1;whiteSpace=wrap;html=1;fillColor=#E1D5E7;strokeColor=#9673A6;fontColor=#000000;fontSize=12;" vertex="1" parent="1">
          <mxGeometry x="820" y="340" width="100" height="50" as="geometry" />
        </mxCell>
        
        <mxCell id="edge12" style="edgeStyle=orthogonalEdgeStyle;rounded=0;orthogonalLoop=1;jettySize=auto;html=1;strokeColor=#8A2BE2;strokeWidth=1.5;" edge="1" parent="1" source="dashboard" target="usuarios">
          <mxGeometry relative="1" as="geometry" />
        </mxCell>
        
        <!-- Configuración -->
        <mxCell id="config" value="Configuración" style="rounded=1;whiteSpace=wrap;html=1;fillColor=#FFF2CC;strokeColor=#D6B656;fontColor=#000000;fontSize=12;" vertex="1" parent="1">
          <mxGeometry x="680" y="420" width="100" height="50" as="geometry" />
        </mxCell>
        
        <mxCell id="edge13" style="edgeStyle=orthogonalEdgeStyle;rounded=0;orthogonalLoop=1;jettySize=auto;html=1;strokeColor=#8A2BE2;strokeWidth=1.5;" edge="1" parent="1" source="dashboard" target="config">
          <mxGeometry relative="1" as="geometry" />
        </mxCell>
        
        <!-- Base de Datos -->
        <mxCell id="database" value="Base de Datos&#xa;MySQL" style="shape=cylinder3;whiteSpace=wrap;html=1;boundedLbl=1;backgroundOutline=1;size=15;fillColor=#DAE8FC;strokeColor=#6C8EBF;fontColor=#000000;fontSize=12;fontStyle=1;" vertex="1" parent="1">
          <mxGeometry x="500" y="600" width="100" height="100" as="geometry" />
        </mxCell>
        
        <mxCell id="edge14" style="edgeStyle=orthogonalEdgeStyle;rounded=0;orthogonalLoop=1;jettySize=auto;html=1;strokeColor=#0066CC;strokeWidth=2;dashed=1;" edge="1" parent="1" source="dashboard" target="database">
          <mxGeometry relative="1" as="geometry" />
        </mxCell>
        
        <!-- Backend API -->
        <mxCell id="backend" value="Backend API&#xa;PHP" style="rounded=1;whiteSpace=wrap;html=1;fillColor=#F8CECC;strokeColor=#B85450;fontColor=#000000;fontSize=12;fontStyle=1;" vertex="1" parent="1">
          <mxGeometry x="300" y="600" width="120" height="60" as="geometry" />
        </mxCell>
        
        <mxCell id="edge16" style="edgeStyle=orthogonalEdgeStyle;rounded=0;orthogonalLoop=1;jettySize=auto;html=1;strokeColor=#CC0000;strokeWidth=2;dashed=1;" edge="1" parent="1" source="auth" target="backend">
          <mxGeometry relative="1" as="geometry">
            <Array as="points">
              <mxPoint x="310" y="550" />
              <mxPoint x="360" y="550" />
            </Array>
          </mxGeometry>
        </mxCell>
        
        <mxCell id="edge17" style="edgeStyle=orthogonalEdgeStyle;rounded=0;orthogonalLoop=1;jettySize=auto;html=1;strokeColor=#0066CC;strokeWidth=2;" edge="1" parent="1" source="backend" target="database">
          <mxGeometry relative="1" as="geometry" />
        </mxCell>
        
        <!-- Logout -->
        <mxCell id="logout" value="Cerrar Sesión" style="rounded=1;whiteSpace=wrap;html=1;fillColor=#F8CECC;strokeColor=#B85450;fontColor=#000000;fontSize=12;" vertex="1" parent="1">
          <mxGeometry x="480" y="540" width="140" height="40" as="geometry" />
        </mxCell>
        
        <mxCell id="edge18" style="edgeStyle=orthogonalEdgeStyle;rounded=0;orthogonalLoop=1;jettySize=auto;html=1;strokeColor=#FF0000;strokeWidth=2;" edge="1" parent="1" source="dashboard" target="logout">
          <mxGeometry relative="1" as="geometry" />
        </mxCell>
        
        <mxCell id="edge19" style="edgeStyle=orthogonalEdgeStyle;rounded=0;orthogonalLoop=1;jettySize=auto;html=1;strokeColor=#FF0000;strokeWidth=2;dashed=1;" edge="1" parent="1" source="logout" target="landing">
          <mxGeometry relative="1" as="geometry">
            <Array as="points">
              <mxPoint x="40" y="560" />
              <mxPoint x="40" y="180" />
            </Array>
          </mxGeometry>
        </mxCell>
        
      </root>
    </mxGraphModel>
  </diagram>
</mxfile>